<svg viewBox="0 0 100 100" xmlns="http://www.w3.org/2000/svg">
  <circle cx="50" cy="50" r="48" fill="#C17A8C" />
  <g fill="white">
    <path d="M22,60 C12,60 12,48 18,42 C24,36 32,55 50,72 C68,55 76,36 82,42 C90,48 90,60 80,60 C70,60 65,55 60,50 Q50,40 40,50 C35,55 30,60 22,60 Z" />
    <path d="M34,68 C38,25 46,40 50,55 C54,40 62,25 66,68 L63,68 C59,32 50,58 41,32 L34,68 Z" />
    <circle cx="50" cy="35" r="5" />
    <path d="M38,78 Q50,84 62,78 T50,82 T38,78 Z" />
    <circle cx="19.3" cy="38.0" r="1.5" />
    <circle cx="21.5" cy="31.2" r="1.5" />
    <circle cx="25.0" cy="25.2" r="1.5" />
    <circle cx="29.9" cy="20.3" r="1.5" />
    <circle cx="35.8" cy="16.7" r="1.5" />
    <circle cx="42.5" cy="14.6" r="1.5" />
    <circle cx="50.0" cy="14.0" r="1.5" />
    <circle cx="57.5" cy="14.6" r="1.5" />
    <circle cx="64.2" cy="16.7" r="1.5" />
    <circle cx="70.1" cy="20.3" r="1.5" />
    <circle cx="75.0" cy="25.2" r="1.5" />
    <circle cx="78.5" cy="31.2" r="1.5" />
    <circle cx="80.7" cy="38.0" r="1.5" />
  </g>
</svg>
